<?xml version="1.0" standalone="no"?>
<!DOCTYPE svg PUBLIC "-//W3C//DTD SVG 20010904//EN"
 "http://www.w3.org/TR/2001/REC-SVG-20010904/DTD/svg10.dtd">
<svg version="1.0" xmlns="http://www.w3.org/2000/svg"
 width="300.000000pt" height="300.000000pt" viewBox="0 0 300.000000 300.000000"
 preserveAspectRatio="xMidYMid meet">
<metadata>
Created by potrace 1.10, written by Peter Selinger 2001-2011
</metadata>
<g transform="translate(0.000000,300.000000) scale(0.100000,-0.100000)"
fill="#000000" stroke="none">
<path d="M938 2990 c-63 -12 -108 -67 -108 -133 l0 -35 -122 -4 c-103 -3 -130
-7 -166 -26 -65 -35 -115 -85 -148 -149 l-29 -58 -3 -1162 c-2 -1157 -2 -1162
19 -1217 24 -65 94 -142 154 -171 22 -10 63 -20 90 -23 46 -4 48 -3 30 11 -11
8 -37 20 -57 28 -84 30 -167 113 -188 188 -6 23 -10 440 -10 1167 0 1290 -6
1199 83 1289 67 66 120 85 243 85 91 0 93 1 118 31 14 17 26 42 26 57 0 19 16
40 58 79 31 29 55 52 52 52 -3 -1 -22 -5 -42 -9z"/>
<path d="M2073 2949 c35 -30 50 -52 58 -84 18 -70 34 -79 163 -86 78 -4 121
-11 146 -23 48 -25 107 -83 133 -131 l22 -40 0 -1170 0 -1170 -29 -53 c-36
-64 -81 -101 -173 -145 l-68 -32 38 -3 c83 -7 198 75 246 177 l26 56 0 1175 0
1175 -27 50 c-35 66 -90 118 -158 149 -49 23 -68 26 -167 26 l-113 0 0 46 c0
40 -5 51 -39 85 -30 30 -46 39 -72 39 l-34 0 48 -41z"/>
<path d="M1014 2860 c-41 -16 -53 -47 -51 -130 3 -131 -46 -120 537 -120 l497
0 21 23 c19 20 22 35 22 103 0 74 -2 83 -26 105 l-26 24 -476 2 c-262 1 -487
-2 -498 -7z m986 -122 l0 -88 -500 0 -500 0 0 88 0 87 500 0 500 0 0 -87z"/>
<path d="M623 2679 c-36 -10 -85 -56 -111 -103 -16 -29 -17 -113 -20 -1144 -2
-807 0 -1124 9 -1154 15 -56 81 -122 136 -137 29 -8 289 -10 884 -9 764 3 847
5 874 20 37 20 67 52 91 98 18 34 19 83 19 1165 l0 1130 -23 42 c-12 24 -41
55 -64 70 -37 25 -53 28 -138 31 l-97 4 -26 -32 c-15 -17 -27 -43 -27 -57 0
-38 -49 -80 -101 -88 -24 -3 -279 -5 -566 -3 -511 3 -522 3 -550 24 -18 14
-33 39 -43 73 -8 29 -24 59 -34 67 -23 16 -161 18 -213 3z m207 -66 c0 -54 32
-101 85 -124 43 -19 66 -20 603 -17 518 3 560 4 585 21 39 25 67 75 67 120 l0
37 85 0 c104 0 151 -17 185 -67 l25 -37 0 -1130 c0 -1070 -1 -1133 -18 -1164
-10 -18 -32 -42 -50 -52 -31 -19 -57 -20 -898 -20 l-866 0 -34 23 c-74 49 -69
-36 -69 1192 1 605 5 1117 10 1138 18 83 76 116 203 117 l87 0 0 -37z"/>
<path d="M1071 2065 l-117 -115 -37 37 c-28 29 -44 37 -71 37 -51 0 -86 -36
-86 -87 0 -34 8 -47 63 -104 66 -69 102 -93 138 -93 28 0 334 301 343 336 8
29 -16 79 -43 94 -49 26 -70 14 -190 -105z m184 44 c4 -10 4 -27 1 -37 -4 -10
-66 -77 -139 -150 -164 -162 -165 -162 -255 -68 -61 64 -73 91 -50 114 19 19
45 14 90 -18 22 -16 48 -30 56 -30 8 0 60 44 116 99 56 54 110 103 120 108 25
14 54 5 61 -18z"/>
<path d="M1479 1987 c-46 -35 -50 -88 -10 -128 l29 -29 347 0 346 0 24 25 c17
16 25 35 25 60 0 25 -8 44 -25 60 l-24 25 -348 0 c-258 -1 -352 -4 -364 -13z
m705 -43 c20 -20 20 -33 -1 -56 -15 -17 -39 -18 -335 -18 -201 0 -326 4 -339
10 -21 12 -25 50 -7 68 9 9 98 12 339 12 284 0 330 -2 343 -16z"/>
<path d="M1070 1435 l-116 -115 -25 26 c-32 35 -57 47 -92 46 -45 -1 -77 -37
-77 -86 0 -36 7 -46 78 -118 102 -102 117 -103 209 -15 128 123 248 249 255
268 10 26 -14 84 -40 98 -50 27 -71 16 -192 -104z m178 53 c27 -27 9 -54 -115
-180 -136 -138 -166 -160 -198 -148 -30 12 -135 126 -135 147 0 23 18 43 40
43 8 0 35 -14 60 -30 25 -16 51 -30 59 -30 7 0 62 47 121 105 108 106 139 122
168 93z"/>
<path d="M1495 1410 c-43 -17 -63 -67 -44 -111 23 -57 36 -59 399 -59 l332 0
29 29 c39 40 39 82 0 122 l-29 29 -334 -1 c-183 0 -342 -4 -353 -9z m691 -54
c17 -24 17 -28 0 -52 -14 -18 -31 -19 -334 -22 -299 -3 -320 -2 -342 16 -29
24 -22 68 13 75 12 3 163 4 335 3 298 -1 314 -2 328 -20z"/>
<path d="M1064 848 l-113 -111 -42 38 c-36 33 -46 37 -78 31 -45 -7 -71 -38
-71 -85 0 -32 9 -45 78 -113 86 -85 108 -96 149 -74 34 18 296 281 312 314 26
49 -20 112 -82 112 -38 0 -47 -7 -153 -112z m177 62 c41 -22 23 -51 -123 -197
-102 -103 -149 -143 -166 -143 -29 0 -140 103 -148 137 -8 28 11 53 40 53 11
0 41 -14 65 -30 54 -37 55 -37 187 92 56 54 107 98 114 98 6 0 20 -5 31 -10z"/>
<path d="M1469 801 c-36 -36 -37 -70 -3 -110 l26 -31 348 0 c336 0 348 1 374
21 36 28 37 89 1 124 l-24 25 -346 0 -347 0 -29 -29z m715 -27 c9 -8 16 -22
16 -29 0 -7 -7 -21 -16 -29 -13 -14 -59 -16 -343 -16 -241 0 -330 3 -339 12
-18 18 -15 55 6 67 10 7 139 11 339 11 279 0 324 -2 337 -16z"/>
</g>
</svg>
